<svg xmlns="http://www.w3.org/2000/svg" viewBox="0 0 720 520" role="img" aria-label="Hambúrguer artesanal clássico">
  <defs>
    <linearGradient id="bun" x1="0" y1="0" x2="1" y2="1"><stop stop-color="#f9c45a"/><stop offset="1" stop-color="#b96b22"/></linearGradient>
    <linearGradient id="meat" x1="0" y1="0" x2="1" y2="1"><stop stop-color="#5a2415"/><stop offset="1" stop-color="#1d0c08"/></linearGradient>
    <filter id="shadow" x="-20%" y="-20%" width="140%" height="140%"><feDropShadow dx="0" dy="24" stdDeviation="24" flood-color="#000" flood-opacity=".45"/></filter>
  </defs>
  <rect width="720" height="520" rx="34" fill="#151515"/>
  <circle cx="545" cy="90" r="118" fill="#f5b301" opacity=".12"/>
  <g filter="url(#shadow)">
    <path d="M130 245c17-106 102-159 228-159 137 0 221 61 237 159H130Z" fill="url(#bun)"/>
    <g fill="#fff2b3" opacity=".82">
      <ellipse cx="238" cy="144" rx="12" ry="5"/><ellipse cx="352" cy="122" rx="13" ry="5"/><ellipse cx="472" cy="153" rx="10" ry="4"/>
    </g>
    <path d="M111 263c68-30 127-28 179 0 54 29 112 28 174-2 54-26 106-24 156 5l-15 44H124l-13-47Z" fill="#58a641"/>
    <path d="M129 298h474c18 0 32 14 32 32s-14 32-32 32H129c-18 0-32-14-32-32s14-32 32-32Z" fill="url(#meat)"/>
    <path d="M146 356h434c-7 43-49 75-104 75H250c-57 0-96-28-104-75Z" fill="url(#bun)"/>
    <path d="M165 278h384l-43 45H204l-39-45Z" fill="#f5b301"/>
    <path d="M196 328h319" stroke="#7d321d" stroke-width="14" stroke-linecap="round" opacity=".55"/>
  </g>
</svg>
